<svg width="64" height="64" viewBox="0 0 64 64" fill="none" xmlns="http://www.w3.org/2000/svg">
<path d="M13.6667 37.3333C12.164 37.3333 10.7229 37.9302 9.6602 38.9926C8.59753 40.055 8.00035 41.496 8 42.9986V44C8 49.008 10.5893 52.756 14.56 55.1733C18.4667 57.5506 23.7147 58.6666 29.3333 58.6666C34.952 58.6666 40.2 57.5506 44.1067 55.1733C48.0773 52.756 50.6667 49.008 50.6667 44V42.9986C50.6663 41.496 50.0691 40.055 49.0065 38.9926C47.9438 37.9302 46.5027 37.3333 45 37.3333H13.6667Z" fill="url(#paint0_linear_2257_74624)"/>
<path d="M13.6667 37.3333C12.164 37.3333 10.7229 37.9302 9.6602 38.9926C8.59753 40.055 8.00035 41.496 8 42.9986V44C8 49.008 10.5893 52.756 14.56 55.1733C18.4667 57.5506 23.7147 58.6666 29.3333 58.6666C34.952 58.6666 40.2 57.5506 44.1067 55.1733C48.0773 52.756 50.6667 49.008 50.6667 44V42.9986C50.6663 41.496 50.0691 40.055 49.0065 38.9926C47.9438 37.9302 46.5027 37.3333 45 37.3333H13.6667Z" fill="url(#paint1_linear_2257_74624)"/>
<path d="M13.6667 37.3333C12.164 37.3333 10.7229 37.9302 9.6602 38.9926C8.59753 40.055 8.00035 41.496 8 42.9986V44C8 49.008 10.5893 52.756 14.56 55.1733C18.4667 57.5506 23.7147 58.6666 29.3333 58.6666C34.952 58.6666 40.2 57.5506 44.1067 55.1733C48.0773 52.756 50.6667 49.008 50.6667 44V42.9986C50.6663 41.496 50.0691 40.055 49.0065 38.9926C47.9438 37.9302 46.5027 37.3333 45 37.3333H13.6667Z" fill="url(#paint2_radial_2257_74624)" fill-opacity="0.5"/>
<path d="M29.3333 5.33331C21.9693 5.33331 16 11.3026 16 18.6666C16 26.0306 21.9693 32 29.3333 32C36.6973 32 42.6667 26.0306 42.6667 18.6666C42.6667 11.3026 36.6973 5.33331 29.3333 5.33331Z" fill="url(#paint3_linear_2257_74624)"/>
<path fill-rule="evenodd" clip-rule="evenodd" d="M46.6667 61.3333C54.7667 61.3333 61.3333 54.7667 61.3333 46.6667C61.3333 38.5667 54.7667 32 46.6667 32C38.5667 32 32 38.5667 32 46.6667C32 54.7667 38.5667 61.3333 46.6667 61.3333Z" fill="url(#paint4_linear_2257_74624)"/>
<path fill-rule="evenodd" clip-rule="evenodd" d="M46.6667 36C47.0203 36 47.3594 36.1405 47.6095 36.3905C47.8595 36.6406 48 36.9797 48 37.3333V45.3333H56C56.3536 45.3333 56.6928 45.4738 56.9428 45.7239C57.1929 45.9739 57.3333 46.313 57.3333 46.6667C57.3333 47.0203 57.1929 47.3594 56.9428 47.6095C56.6928 47.8595 56.3536 48 56 48H48V56C48 56.3536 47.8595 56.6928 47.6095 56.9428C47.3594 57.1929 47.0203 57.3333 46.6667 57.3333C46.313 57.3333 45.9739 57.1929 45.7239 56.9428C45.4738 56.6928 45.3333 56.3536 45.3333 56V48H37.3333C36.9797 48 36.6406 47.8595 36.3905 47.6095C36.1405 47.3594 36 47.0203 36 46.6667C36 46.313 36.1405 45.9739 36.3905 45.7239C36.6406 45.4738 36.9797 45.3333 37.3333 45.3333H45.3333V37.3333C45.3333 36.9797 45.4738 36.6406 45.7239 36.3905C45.9739 36.1405 46.313 36 46.6667 36Z" fill="white"/>
<defs>
<linearGradient id="paint0_linear_2257_74624" x1="18.1467" y1="40.1693" x2="25.0387" y2="62.18" gradientUnits="userSpaceOnUse">
<stop offset="0.125" stop-color="#6C7DFE"/>
<stop offset="1" stop-color="#4E41DC"/>
</linearGradient>
<linearGradient id="paint1_linear_2257_74624" x1="29.3333" y1="34.7933" x2="38.984" y2="70.8573" gradientUnits="userSpaceOnUse">
<stop stop-color="#885EDB" stop-opacity="0"/>
<stop offset="1" stop-color="#6C62F8"/>
</linearGradient>
<radialGradient id="paint2_radial_2257_74624" cx="0" cy="0" r="1" gradientUnits="userSpaceOnUse" gradientTransform="translate(47.3333 46) rotate(90) scale(27.3333)">
<stop offset="0.493" stop-color="#30116E"/>
<stop offset="0.912" stop-color="#30116E" stop-opacity="0"/>
</radialGradient>
<linearGradient id="paint3_linear_2257_74624" x1="22.3413" y1="8.87865" x2="35.932" y2="30.5786" gradientUnits="userSpaceOnUse">
<stop offset="0.125" stop-color="#6C78FE"/>
<stop offset="1" stop-color="#4146DC"/>
</linearGradient>
<linearGradient id="paint4_linear_2257_74624" x1="33.048" y1="37.5" x2="53.2907" y2="58.532" gradientUnits="userSpaceOnUse">
<stop stop-color="#52D17C"/>
<stop offset="1" stop-color="#22918B"/>
</linearGradient>
</defs>
</svg>
