<svg width="46" height="46" viewBox="0 0 46 46" fill="none" xmlns="http://www.w3.org/2000/svg">
<path d="M25.7102 22.9999L31.1325 28.4203C31.4921 28.7799 31.6941 29.2677 31.6941 29.7763C31.6941 30.2849 31.4921 30.7727 31.1325 31.1323C30.7728 31.492 30.285 31.694 29.7764 31.694C29.2678 31.694 28.78 31.492 28.4204 31.1323L23 25.7101L17.5797 31.1323C17.2201 31.492 16.7323 31.694 16.2237 31.694C15.7151 31.694 15.2273 31.492 14.8676 31.1323C14.508 30.7727 14.3059 30.2849 14.3059 29.7763C14.3059 29.2677 14.508 28.7799 14.8676 28.4203L20.2899 22.9999L14.8676 17.5796C14.508 17.2199 14.3059 16.7322 14.3059 16.2235C14.3059 15.7149 14.508 15.2271 14.8676 14.8675C15.2273 14.5079 15.7151 14.3058 16.2237 14.3058C16.7323 14.3058 17.2201 14.5079 17.5797 14.8675L23 20.2898L28.4204 14.8675C28.78 14.5079 29.2678 14.3058 29.7764 14.3058C30.285 14.3058 30.7728 14.5079 31.1325 14.8675C31.4921 15.2271 31.6941 15.7149 31.6941 16.2235C31.6941 16.7322 31.4921 17.2199 31.1325 17.5796L25.7102 22.9999ZM23 42.1666C12.4143 42.1666 3.83337 33.5857 3.83337 22.9999C3.83337 12.4142 12.4143 3.83325 23 3.83325C33.5858 3.83325 42.1667 12.4142 42.1667 22.9999C42.1667 33.5857 33.5858 42.1666 23 42.1666ZM23 38.3333C27.0667 38.3333 30.9668 36.7178 33.8423 33.8422C36.7179 30.9667 38.3334 27.0666 38.3334 22.9999C38.3334 18.9333 36.7179 15.0332 33.8423 12.1576C30.9668 9.28206 27.0667 7.66659 23 7.66659C18.9334 7.66659 15.0333 9.28206 12.1577 12.1576C9.28218 15.0332 7.66671 18.9333 7.66671 22.9999C7.66671 27.0666 9.28218 30.9667 12.1577 33.8422C15.0333 36.7178 18.9334 38.3333 23 38.3333Z" fill="#6A7282"/>
</svg>
