<svg width="40" height="40" viewBox="0 0 40 40" fill="none" xmlns="http://www.w3.org/2000/svg">
<path d="M12.6943 0.5H26.793L38.5 12.207V34.793C38.4998 37.3646 36.2642 39.4999 33.4404 39.5H12.5703C9.73516 39.5 7.50023 37.364 7.5 34.793V5.20703C7.50013 2.64972 9.84436 0.500142 12.6943 0.5Z" fill="white" stroke="#DBDBDB"/>
<path d="M27.0257 8.16V0L39 12H31.0171C27.4248 12 26.8593 9.44 27.0257 8.16Z" fill="#D4D4D8"/>
<rect x="1" y="19" width="27" height="15" rx="3" fill="#343A3E"/>
<path d="M5.59109 24.5955V23.4545H10.9668V24.5955H8.96289V30H7.59499V24.5955H5.59109ZM13.1497 23.4545L14.4696 25.6854H14.5208L15.8471 23.4545H17.41L15.4125 26.7273L17.4547 30H15.8631L14.5208 27.766H14.4696L13.1273 30H11.5421L13.5907 26.7273L11.5804 23.4545H13.1497ZM18.0364 24.5955V23.4545H23.4121V24.5955H21.4082V30H20.0403V24.5955H18.0364Z" fill="white"/>
</svg>
