<svg width="20" height="20" viewBox="0 0 20 20" fill="none" xmlns="http://www.w3.org/2000/svg">
<path d="M5.83337 15V14.1667C5.83337 11.8655 7.69886 10 10 10C12.3012 10 14.1667 11.8655 14.1667 14.1667V15" stroke="#6A7282" stroke-width="1.5" stroke-linecap="round"/>
<path d="M10 10C11.3807 10 12.5 8.88075 12.5 7.5C12.5 6.11929 11.3807 5 10 5C8.61925 5 7.5 6.11929 7.5 7.5C7.5 8.88075 8.61925 10 10 10Z" stroke="#6A7282" stroke-width="1.5" stroke-linecap="round" stroke-linejoin="round"/>
<path d="M17.5 3V17C17.5 17.2762 17.2762 17.5 17 17.5H3C2.72386 17.5 2.5 17.2762 2.5 17V3C2.5 2.72386 2.72386 2.5 3 2.5H17C17.2762 2.5 17.5 2.72386 17.5 3Z" stroke="#6A7282" stroke-width="1.5" stroke-linecap="round" stroke-linejoin="round"/>
</svg>
