<svg width="20" height="20" viewBox="0 0 20 20" fill="none" xmlns="http://www.w3.org/2000/svg">
<path d="M10 17.5C14.1421 17.5 17.5 14.1421 17.5 10C17.5 5.85786 14.1421 2.5 10 2.5C5.85786 2.5 2.5 5.85786 2.5 10C2.5 14.1421 5.85786 17.5 10 17.5Z" stroke="#6A7282" stroke-width="1.2" stroke-linecap="round" stroke-linejoin="round"/>
<path d="M10 10.8333C11.3807 10.8333 12.5 9.71396 12.5 8.33325C12.5 6.95254 11.3807 5.83325 10 5.83325C8.61929 5.83325 7.5 6.95254 7.5 8.33325C7.5 9.71396 8.61929 10.8333 10 10.8333Z" stroke="#6A7282" stroke-width="1.2" stroke-linecap="round" stroke-linejoin="round"/>
<path d="M5.14 15.7074C5.34626 15.0209 5.76831 14.4192 6.34354 13.9916C6.91877 13.5639 7.61654 13.333 8.33333 13.3333H11.6667C12.3844 13.333 13.083 13.5644 13.6587 13.9931C14.2343 14.4217 14.6562 15.0247 14.8617 15.7124" stroke="#6A7282" stroke-width="1.2" stroke-linecap="round" stroke-linejoin="round"/>
</svg>
